<?xml version="1.0" encoding="UTF-8"?>
<svg version="1.1" xmlns="http://www.w3.org/2000/svg" width="500" height="500">
<path d="M0 0 C4.20634062 -0.3171747 6.55635001 0.53320016 10.1875 2.625 C11.14269531 3.17027344 12.09789062 3.71554688 13.08203125 4.27734375 C14.04496094 4.84582031 15.00789063 5.41429688 16 6 C16.91136719 6.53753906 17.82273437 7.07507813 18.76171875 7.62890625 C21.18273974 9.07283357 23.59266191 10.53341348 26 12 C26.92039062 12.51175781 27.84078125 13.02351563 28.7890625 13.55078125 C29.51867187 14.02902344 30.24828125 14.50726563 31 15 C31 15.66 31 16.32 31 17 C31.556875 17.2475 32.11375 17.495 32.6875 17.75 C35.42410913 19.22924818 37.67650869 20.93467439 40 23 C40 23.66 40 24.32 40 25 C40.66 25 41.32 25 42 25 C42 25.66 42 26.32 42 27 C42.66 27 43.32 27 44 27 C44 27.66 44 28.32 44 29 C44.66 29 45.32 29 46 29 C46 29.66 46 30.32 46 31 C46.66 31 47.32 31 48 31 C50.29983422 33.51210682 52.20657786 36.35786558 54.1875 39.125 C54.77394287 39.94307129 55.36038574 40.76114258 55.96459961 41.60400391 C63.22686104 51.93036206 68.65445323 62.77527697 72 75 C72.17660156 75.60521484 72.35320312 76.21042969 72.53515625 76.83398438 C74.43468478 84.09968102 74.39319069 91.40771988 74.375 98.875 C74.37578552 99.55720612 74.37657104 100.23941223 74.37738037 100.94229126 C74.36059487 113.12695762 74.23595755 127.12920913 68 138 C82.83294315 130.56091723 92.52593428 123.01969232 98 107 C98.35187667 105.67143999 98.69208469 104.33943161 99 103 C102.10022918 103.30952741 103.5949987 103.56619461 105.75756836 105.88256836 C106.54079468 107.09891968 106.54079468 107.09891968 107.33984375 108.33984375 C107.92830078 109.23896484 108.51675781 110.13808594 109.12304688 111.06445312 C109.72181641 112.01255859 110.32058594 112.96066406 110.9375 113.9375 C111.82985352 115.30745117 111.82985352 115.30745117 112.74023438 116.70507812 C114.52036048 119.45405975 116.26719477 122.22097742 118 125 C118.53375244 125.85561523 119.06750488 126.71123047 119.61743164 127.59277344 C122.95393232 133.0408561 125.87809739 138.58006092 128.5625 144.375 C128.94889648 145.20225586 129.33529297 146.02951172 129.73339844 146.88183594 C145.67078819 181.20955265 153.27834011 217.14504883 140.58203125 253.87890625 C136.63848875 264.5225665 131.75220596 277.53611611 124 286 C123.34 286 122.68 286 122 286 C121.67 287.32 121.34 288.64 121 290 C120.34 290 119.68 290 119 290 C119 290.66 119 291.32 119 292 C118.34 292 117.68 292 117 292 C116.77828125 292.54398437 116.5565625 293.08796875 116.328125 293.6484375 C105.78284794 312.31978099 79.57224144 325.12414547 60 331 C58.7728125 331.39316406 57.545625 331.78632813 56.28125 332.19140625 C36.01409658 338.0358877 10.02809755 337.36186628 -10 331 C-10.69818848 330.78037598 -11.39637695 330.56075195 -12.11572266 330.33447266 C-29.51104069 324.68009392 -45.38181664 315.20090636 -59 303 C-59 302.34 -59 301.68 -59 301 C-59.59296875 300.7421875 -60.1859375 300.484375 -60.796875 300.21875 C-63.17660965 298.90230105 -64.50978792 297.57419218 -66.25 295.5 C-66.77078125 294.8915625 -67.2915625 294.283125 -67.828125 293.65625 C-69 292 -69 292 -69 290 C-69.66 290 -70.32 290 -71 290 C-71.495 288.02 -71.495 288.02 -72 286 C-72.66 286 -73.32 286 -74 286 C-92.86540167 259.43018484 -100.84038267 226.25142876 -95.41113281 194.06591797 C-91.21478313 172.97951001 -80.58103069 155.0679717 -68 138 C-67.17242187 136.80890625 -67.17242187 136.80890625 -66.328125 135.59375 C-65.67070312 134.80484375 -65.67070312 134.80484375 -65 134 C-64.34 134 -63.68 134 -63 134 C-62.71125 133.401875 -62.4225 132.80375 -62.125 132.1875 C-61 130 -61 130 -59 127 C-58.34 127 -57.68 127 -57 127 C-57 126.34 -57 125.68 -57 125 C-56.34 125 -55.68 125 -55 125 C-55 124.34 -55 123.68 -55 123 C-54.34 123 -53.68 123 -53 123 C-53 122.34 -53 121.68 -53 121 C-51.3203125 119.37890625 -51.3203125 119.37890625 -49.125 117.5625 C-46.53806278 115.41599116 -44.88815626 113.83223438 -43 111 C-42.34 111 -41.68 111 -41 111 C-41 110.34 -41 109.68 -41 109 C-40.34 109 -39.68 109 -39 109 C-39 108.34 -39 107.68 -39 107 C-38.34 107 -37.68 107 -37 107 C-37 106.34 -37 105.68 -37 105 C-36.34 105 -35.68 105 -35 105 C-35 104.34 -35 103.68 -35 103 C-34.34 103 -33.68 103 -33 103 C-33 102.34 -33 101.68 -33 101 C-32.34 101 -31.68 101 -31 101 C-30.65775391 100.16275391 -30.65775391 100.16275391 -30.30859375 99.30859375 C-28.08852843 95.3920009 -24.64689126 92.61935 -21.41015625 89.53515625 C-19.13933738 87.14656396 -17.6820315 84.80673316 -16 82 C-15.34 82 -14.68 82 -14 82 C-13.72800781 81.26265625 -13.45601563 80.5253125 -13.17578125 79.765625 C-12.06164976 77.14501007 -10.81797112 75.07309869 -9.1875 72.75 C-0.04089417 59.26376367 5.39408166 45.28170481 5.4375 28.875 C5.44136719 27.86469727 5.44523437 26.85439453 5.44921875 25.81347656 C5.33394346 18.29896875 4.12902582 12.46055882 1.09375 5.546875 C0 3 0 3 0 0 Z M40 167 C37.32824401 173.71197237 35.38846272 180.53165503 33.5 187.5 C30.20838116 199.64592979 30.20838116 199.64592979 28.46875 204.03125 C27.23659639 207.14845976 26.39737803 210.26664133 25.61352539 213.5246582 C24.12199339 219.58557312 22.45199984 225.57976186 20.71484375 231.57421875 C20.0956793 233.72720669 19.47653939 235.88020169 18.85742188 238.03320312 C17.89494378 241.37076134 16.93156162 244.7080564 15.9675293 248.04516602 C15.02685858 251.30419961 14.08947319 254.56416541 13.15234375 257.82421875 C12.86584457 258.81193771 12.5793454 259.79965668 12.28416443 260.81730652 C10.64830978 266.51260008 9.22469629 272.20196232 8 278 C12.29 278 16.58 278 21 278 C23.72626231 270.72996717 26.09327197 263.49035408 28.125 256 C28.7282409 253.81354645 29.33246775 251.62736477 29.9375 249.44140625 C30.26363281 248.26078613 30.58976562 247.08016602 30.92578125 245.86376953 C32.74423626 239.30582818 34.60902755 232.76095151 36.4755249 226.21655273 C37.1054223 224.00619951 37.73268458 221.79511025 38.35986328 219.58398438 C40.57163032 211.8151332 42.867422 204.08147441 45.3274231 196.38719177 C46.86382526 191.55584388 48.1317658 186.69094668 49.30859375 181.76171875 C50.21346948 178.14732813 51.31327124 174.6062452 52.44921875 171.05859375 C53.1292306 168.87215613 53.1292306 168.87215613 53 166 C48.55790643 165.89165625 44.38585329 166.29826347 40 167 Z M-14.0625 186.4375 C-15.340874 187.17364934 -16.61953094 187.9093075 -17.8984375 188.64453125 C-18.5697168 189.0307666 -19.24099609 189.41700195 -19.93261719 189.81494141 C-32.13565734 196.80992923 -44.36896133 203.80364141 -57 210 C-57 210.66 -57 211.32 -57 212 C-57.5775 212.103125 -58.155 212.20625 -58.75 212.3125 C-61.50758613 213.15509576 -62.9304931 213.96850445 -65 216 C-66.14495135 220.79674355 -66.02826104 225.1868632 -65 230 C-62.34962947 233.49951837 -58.87139765 235.04646063 -55 237 C-53.53276915 237.81369555 -52.0694895 238.63454022 -50.609375 239.4609375 C-47.54337094 241.19282062 -44.4636839 242.89363662 -41.3671875 244.5703125 C-37.69807628 246.56585138 -34.20125715 248.75489669 -30.73095703 251.07763672 C-28.88563216 252.23513259 -28.88563216 252.23513259 -26 252 C-26 252.66 -26 253.32 -26 254 C-25.19175781 254.39832031 -24.38351563 254.79664063 -23.55078125 255.20703125 C-22.48214844 255.73683594 -21.41351563 256.26664062 -20.3125 256.8125 C-19.25675781 257.33457031 -18.20101562 257.85664063 -17.11328125 258.39453125 C-14 260 -14 260 -11.23046875 261.69921875 C-9.14239839 263.16792565 -9.14239839 263.16792565 -7 263 C-5.52864563 252.83386403 -5.52864563 252.83386403 -8.83984375 243.74609375 C-11.49545644 242.20642573 -14.13228772 241.09135609 -17 240 C-18.72188889 239.08763621 -20.43024059 238.14932097 -22.125 237.1875 C-24.75853336 235.75721895 -27.39206493 234.32705738 -30.03125 232.90722656 C-32.23429789 231.71817081 -34.42994988 230.51624502 -36.625 229.3125 C-37.33672363 228.93182373 -38.04844727 228.55114746 -38.78173828 228.15893555 C-43.88636766 225.34089702 -43.88636766 225.34089702 -45 222 C-43.77023438 221.65195312 -43.77023438 221.65195312 -42.515625 221.296875 C-38.26257382 219.72797168 -34.61692391 217.59098422 -30.75 215.25 C-30.00073242 214.80261475 -29.25146484 214.35522949 -28.47949219 213.89428711 C-26.31648908 212.60139054 -24.15793921 211.30132482 -22 210 C-20.9584375 209.37738281 -19.916875 208.75476563 -18.84375 208.11328125 C-16.55928628 206.74741966 -14.2789279 205.3750674 -12 204 C-10.64068359 203.46246094 -10.64068359 203.46246094 -9.25390625 202.9140625 C-6.84962296 201.2706922 -6.84962296 201.2706922 -6.60400391 199.07495117 C-6.50636226 196.63571827 -6.56494059 194.25048955 -6.6875 191.8125 C-6.72133789 190.5450293 -6.72133789 190.5450293 -6.75585938 189.25195312 C-6.81475037 187.16721202 -6.90443202 185.08338196 -7 183 C-9.3788291 183 -12.00395353 185.24285992 -14.0625 186.4375 Z M64 183 C64 188.94 64 194.88 64 201 C66.041875 202.155 68.08375 203.31 70.1875 204.5 C75.10955952 207.29532229 79.95152737 210.18488006 84.75 213.1875 C93.31436547 219.16794427 93.31436547 219.16794427 103 222 C103 222.99 103 223.98 103 225 C102.32195312 225.24621094 101.64390625 225.49242187 100.9453125 225.74609375 C97.42020045 227.24683774 94.17031579 229.12346681 90.875 231.0625 C84.39495225 234.86834925 84.39495225 234.86834925 81 236 C81 236.66 81 237.32 81 238 C80.47921875 238.09152344 79.9584375 238.18304688 79.421875 238.27734375 C76.12355952 239.26151853 73.24362058 240.90158883 70.25 242.5625 C68.1875 243.696875 66.125 244.83125 64 246 C64 251.61 64 257.22 64 263 C68.33656285 261.55447905 70.87387147 260.64267062 74.5 258.3125 C80.77802998 254.42472914 87.36820301 251.22989537 94 248 C94 247.34 94 246.68 94 246 C94.81658081 245.84917969 94.81658081 245.84917969 95.6496582 245.6953125 C98.60286833 244.82165067 100.9499273 243.43582232 103.60546875 241.875 C104.67087891 241.25109375 105.73628906 240.6271875 106.83398438 239.984375 C107.94064453 239.32953125 109.04730469 238.6746875 110.1875 238 C111.30576172 237.34515625 112.42402344 236.6903125 113.57617188 236.015625 C118.55928445 233.37895893 118.55928445 233.37895893 123 230 C123.66993812 225.22827097 123.81183755 220.75812073 123 216 C120.53041106 212.87582122 117.53479464 211.69675111 114 210 C112.27503244 209.08058167 110.55644679 208.14911027 108.84375 207.20703125 C107.88299561 206.67996582 106.92224121 206.15290039 105.93237305 205.60986328 C104.96468994 205.0786084 103.99700684 204.54735352 103 204 C101.22574209 203.03427079 99.45101331 202.06940609 97.67578125 201.10546875 C88.29652342 196.00409068 78.92883099 190.88977138 69.65942383 185.59057617 C66.98809071 183.78710584 66.98809071 183.78710584 64 183 Z " fill="#FB483A" transform="translate(225,61)"/>
<path d="M0 0 C4.34519077 -0.35487039 6.80880291 0.66678442 10.5625 2.8125 C11.95662109 3.59560547 11.95662109 3.59560547 13.37890625 4.39453125 C15.70249422 5.81777216 17.85693077 7.32084223 20 9 C16.86650268 10.04449911 16.01031744 9.93423645 13 9 C13 8.01 13 7.02 13 6 C10.03 5.505 10.03 5.505 7 5 C7.33 6.98 7.66 8.96 8 11 C7.34 11 6.68 11 6 11 C6.309375 11.928125 6.309375 11.928125 6.625 12.875 C6.74875 13.57625 6.8725 14.2775 7 15 C6.34 15.66 5.68 16.32 5 17 C4.16080602 14.73117913 3.32848276 12.46022973 2.5 10.1875 C2.26152344 9.54490234 2.02304688 8.90230469 1.77734375 8.24023438 C0.72931254 5.35066261 0 3.09923939 0 0 Z " fill="#E95B51" transform="translate(225,61)"/>
<path d="M0 0 C0.33 0.66 0.66 1.32 1 2 C1.66 2.33 2.32 2.66 3 3 C2.67 4.65 2.34 6.3 2 8 C1.67 8 1.34 8 1 8 C0.98018066 8.91813477 0.96036133 9.83626953 0.93994141 10.78222656 C0.86173045 14.19671825 0.77503416 17.61077702 0.68261719 21.02490234 C0.64439334 22.50105536 0.60952897 23.97729943 0.578125 25.45361328 C0.53233014 27.57878094 0.47436163 29.70332542 0.4140625 31.828125 C0.36693115 33.7447998 0.36693115 33.7447998 0.31884766 35.70019531 C0.02653615 38.72537324 -0.40581489 40.46049109 -2 43 C-3.77857019 28.93023936 -3.89220361 13.78050469 0 0 Z " fill="#E26D63" transform="translate(131,249)"/>
<path d="M0 0 C5.84961243 4.97984498 8.35398519 14.66775223 10 22 C10.125 24.9375 10.125 24.9375 10 27 C8.62437146 25.71034824 7.29233607 24.37310707 6 23 C6 22.34 6 21.68 6 21 C5.01 20.67 4.02 20.34 3 20 C3 18.68 3 17.36 3 16 C3.66 16 4.32 16 5 16 C4.505 14.948125 4.01 13.89625 3.5 12.8125 C2.17220212 9.74547391 1.69284994 7.37865064 2 4 C1.34 4 0.68 4 0 4 C0 2.68 0 1.36 0 0 Z " fill="#F6473C" transform="translate(287,114)"/>
<path d="M0 0 C0 0.99 0 1.98 0 3 C2.64 4.32 5.28 5.64 8 7 C8.33 6.34 8.66 5.68 9 5 C9.680625 6.4540625 9.680625 6.4540625 10.375 7.9375 C11.65786221 11.07079582 11.65786221 11.07079582 14 12 C14 12.66 14 13.32 14 14 C8.89764402 12.65727474 4.85578781 10.20905168 0.4140625 7.46484375 C-2.32823233 5.8008299 -5.10337683 4.37208466 -8 3 C-2 0 -2 0 0 0 Z " fill="#EB605A" transform="translate(301,244)"/>
<path d="M0 0 C0.99 0 1.98 0 3 0 C2.1875 1.9375 2.1875 1.9375 1 4 C0.01 4.33 -0.98 4.66 -2 5 C-2.33 6.155 -2.66 7.31 -3 8.5 C-3.33 9.655 -3.66 10.81 -4 12 C-4.99 12.33 -5.98 12.66 -7 13 C-6.67 15.31 -6.34 17.62 -6 20 C-6.99 20.66 -7.98 21.32 -9 22 C-10.32 21.34 -11.64 20.68 -13 20 C-9.37967243 12.95080449 -5.29601391 5.92754695 0 0 Z " fill="#E55A51" transform="translate(155,202)"/>
<path d="M0 0 C4.76551013 1.37605916 8.7248553 3.46778066 12.875 6.125 C13.46796875 6.49753906 14.0609375 6.87007813 14.671875 7.25390625 C16.1181343 8.16365 17.55958046 9.08103798 19 10 C18.67 10.66 18.34 11.32 18 12 C17.34 12 16.68 12 16 12 C16 11.34 16 10.68 16 10 C15.01 10.33 14.02 10.66 13 11 C13 10.01 13 9.02 13 8 C12.01 8.33 11.02 8.66 10 9 C9.01 9.33 8.02 9.66 7 10 C7 10.66 7 11.32 7 12 C6.01 12 5.02 12 4 12 C4 9.36 4 6.72 4 4 C2.68 3.34 1.36 2.68 0 2 C0 1.34 0 0.68 0 0 Z " fill="#EC5B4F" transform="translate(172,299)"/>
<path d="M0 0 C0.66 0.33 1.32 0.66 2 1 C2.40729228 3.32156597 2.74438677 5.6568787 3 8 C2.01 8.495 2.01 8.495 1 9 C1.04125 10.11375 1.0825 11.2275 1.125 12.375 C1 16 1 16 -1 18 C-1.66 17.67 -2.32 17.34 -3 17 C-3.33 19.31 -3.66 21.62 -4 24 C-4.66 24 -5.32 24 -6 24 C-4.56933303 15.8301386 -2.35862583 7.94605012 0 0 Z " fill="#EC5A4D" transform="translate(277,230)"/>
<path d="M0 0 C0 0.66 0 1.32 0 2 C-0.66 2 -1.32 2 -2 2 C-2.66 4.31 -3.32 6.62 -4 9 C-3.34 9 -2.68 9 -2 9 C-1.67 10.32 -1.34 11.64 -1 13 C-4.5865054 11.66786942 -7.87682483 10.23083941 -11 8 C-11 7.01 -11 6.02 -11 5 C-9.54462432 4.16151196 -8.08559627 3.32936066 -6.625 2.5 C-5.81289062 2.0359375 -5.00078125 1.571875 -4.1640625 1.09375 C-2 0 -2 0 0 0 Z M-2 8 C0 9 0 9 0 9 Z " fill="#EA5C52" transform="translate(191,278)"/>
<path d="M0 0 C0.33 0 0.66 0 1 0 C1.30954686 9.59595269 1.13815666 18.87548198 -0.375 28.375 C-0.50108643 29.17655518 -0.62717285 29.97811035 -0.75708008 30.80395508 C-1.39197475 34.50598909 -2.00161336 37.75044955 -4 41 C-4.02708567 39.39592672 -4.04643483 37.7917215 -4.0625 36.1875 C-4.07410156 35.29417969 -4.08570313 34.40085937 -4.09765625 33.48046875 C-4 31 -4 31 -3 28 C-2.77439324 25.60745424 -2.59151405 23.21071877 -2.4375 20.8125 C-2.35371094 19.54019531 -2.26992188 18.26789063 -2.18359375 16.95703125 C-2.12300781 15.98121094 -2.06242187 15.00539063 -2 14 C-1.67 14 -1.34 14 -1 14 C-0.67 9.38 -0.34 4.76 0 0 Z " fill="#E5776A" transform="translate(371,266)"/>
<path d="M0 0 C2.4375 1.25 2.4375 1.25 3.4375 4.25 C4.0975 4.25 4.7575 4.25 5.4375 4.25 C5.4375 4.91 5.4375 5.57 5.4375 6.25 C4.4475 6.25 3.4575 6.25 2.4375 6.25 C2.4375 10.87 2.4375 15.49 2.4375 20.25 C1.7775 20.58 1.1175 20.91 0.4375 21.25 C0.4375 14.65 0.4375 8.05 0.4375 1.25 C-0.2225 1.25 -0.8825 1.25 -1.5625 1.25 C-1.8925 2.24 -2.2225 3.23 -2.5625 4.25 C-4.625 4.9375 -4.625 4.9375 -6.5625 5.25 C-6.5625 4.59 -6.5625 3.93 -6.5625 3.25 C-5.9025 3.25 -5.2425 3.25 -4.5625 3.25 C-4.5625 2.26 -4.5625 1.27 -4.5625 0.25 C-2.5625 -0.75 -2.5625 -0.75 0 0 Z " fill="#DF463B" transform="translate(218.5625,241.75)"/>
<path d="M0 0 C0.66 0.33 1.32 0.66 2 1 C2 1.99 2 2.98 2 4 C0 6 0 6 -2 8 C-2.7872678 10.1381966 -2.7872678 10.1381966 -3 12 C-3.721875 11.896875 -4.44375 11.79375 -5.1875 11.6875 C-9.12041589 12.12449065 -10.46321923 14.10082197 -13 17 C-13.66 16.67 -14.32 16.34 -15 16 C-13.38405168 13.95880212 -11.7143618 11.95927063 -10 10 C-9.34 10 -8.68 10 -8 10 C-8 9.34 -8 8.68 -8 8 C-7.34 8 -6.68 8 -6 8 C-6 7.34 -6 6.68 -6 6 C-5.34 6 -4.68 6 -4 6 C-4 5.34 -4 4.68 -4 4 C-3.34 4 -2.68 4 -2 4 C-2 3.34 -2 2.68 -2 2 C-1.34 2 -0.68 2 0 2 C0 1.34 0 0.68 0 0 Z " fill="#EC5F51" transform="translate(192,162)"/>
<path d="M0 0 C0.75 1.625 0.75 1.625 1 4 C-0.8125 7.25 -0.8125 7.25 -3 10 C-3.66 10 -4.32 10 -5 10 C-5.33 11.32 -5.66 12.64 -6 14 C-6.66 14 -7.32 14 -8 14 C-8.33 14.66 -8.66 15.32 -9 16 C-8.33333333 13.33333333 -7.66666667 10.66666667 -7 8 C-7.66 7.67 -8.32 7.34 -9 7 C-8.01 5.02 -7.02 3.04 -6 1 C-4.02 1.66 -2.04 2.32 0 3 C0 2.01 0 1.02 0 0 Z " fill="#EF5F54" transform="translate(352,337)"/>
<path d="M0 0 C0.66 0.33 1.32 0.66 2 1 C-0.46520713 6.84399101 -2.94457169 10.18034305 -8 14 C-8.33 14.66 -8.66 15.32 -9 16 C-10.32 15.67 -11.64 15.34 -13 15 C-11.625 13 -11.625 13 -10 11 C-9.34 11 -8.68 11 -8 11 C-7.71125 10.401875 -7.4225 9.80375 -7.125 9.1875 C-6 7 -6 7 -4 4 C-3.34 4 -2.68 4 -2 4 C-2 3.34 -2 2.68 -2 2 C-1.34 2 -0.68 2 0 2 C0 1.34 0 0.68 0 0 Z " fill="#EF635B" transform="translate(170,184)"/>
<path d="M0 0 C-0.33 1.32 -0.66 2.64 -1 4 C-1.99 3.67 -2.98 3.34 -4 3 C-4.33 8.61 -4.66 14.22 -5 20 C-5.66 20 -6.32 20 -7 20 C-7 13.4 -7 6.8 -7 0 C-3 -1 -3 -1 0 0 Z " fill="#E2554B" transform="translate(294,242)"/>
<path d="M0 0 C1.23556641 0.01740234 1.23556641 0.01740234 2.49609375 0.03515625 C3.32238281 0.04417969 4.14867187 0.05320312 5 0.0625 C5.63808594 0.07410156 6.27617187 0.08570313 6.93359375 0.09765625 C4.73080967 2.38179315 2.90002373 3.89254407 -0.06640625 5.09765625 C-1.05640625 5.09765625 -2.04640625 5.09765625 -3.06640625 5.09765625 C-3.06640625 5.75765625 -3.06640625 6.41765625 -3.06640625 7.09765625 C-6.53140625 8.58265625 -6.53140625 8.58265625 -10.06640625 10.09765625 C-10.39640625 9.10765625 -10.72640625 8.11765625 -11.06640625 7.09765625 C-10.40640625 7.09765625 -9.74640625 7.09765625 -9.06640625 7.09765625 C-9.06640625 6.10765625 -9.06640625 5.11765625 -9.06640625 4.09765625 C-8.07640625 4.42765625 -7.08640625 4.75765625 -6.06640625 5.09765625 C-3.92384832 4.70832769 -3.92384832 4.70832769 -2.06640625 4.09765625 C-2.39640625 3.10765625 -2.72640625 2.11765625 -3.06640625 1.09765625 C-2.06640625 0.09765625 -2.06640625 0.09765625 0 0 Z " fill="#EA625C" transform="translate(171.06640625,265.90234375)"/>
<path d="M0 0 C3.14480675 2.94259079 5.49230126 6.00060534 7.8125 9.625 C8.43769531 10.58664063 9.06289063 11.54828125 9.70703125 12.5390625 C10.13371094 13.35117188 10.56039063 14.16328125 11 15 C10.67 15.66 10.34 16.32 10 17 C8.29159719 15.36587557 7.06546953 14.13093906 6 12 C5.01 11.67 4.02 11.34 3 11 C3 10.01 3 9.02 3 8 C2.01 7.67 1.02 7.34 0 7 C0 4.69 0 2.38 0 0 Z " fill="#E76B64" transform="translate(332,171)"/>
<path d="M0 0 C3.0831351 1.19899698 6.06279492 2.47700477 9 4 C8.6875 5.875 8.6875 5.875 8 8 C7.01 8.66 6.02 9.32 5 10 C5 9.01 5 8.02 5 7 C3.35 6.67 1.7 6.34 0 6 C0 4.02 0 2.04 0 0 Z " fill="#EE5244" transform="translate(289,262)"/>
<path d="M0 0 C0 3 0 3 -1.5 4.6875 C-1.995 5.120625 -2.49 5.55375 -3 6 C-3.99 5.67 -4.98 5.34 -6 5 C-6 5.99 -6 6.98 -6 8 C-9.50776784 9.60355101 -12.14354879 10.22036864 -16 10 C-11.22486164 5.71884147 -5.63843769 2.96240159 0 0 Z " fill="#E86E66" transform="translate(346,292)"/>
<path d="M0 0 C0.763125 0.20625 1.52625 0.4125 2.3125 0.625 C-4.18450599 6.00823353 -4.18450599 6.00823353 -7.6875 7.625 C-10 6.8125 -10 6.8125 -11.6875 5.625 C-10.6975 4.635 -9.7075 3.645 -8.6875 2.625 C-7.6975 2.955 -6.7075 3.285 -5.6875 3.625 C-5.6875 2.965 -5.6875 2.305 -5.6875 1.625 C-2.6875 -0.375 -2.6875 -0.375 0 0 Z " fill="#EE584F" transform="translate(316.6875,289.375)"/>
<path d="M0 0 C2.97 0.495 2.97 0.495 6 1 C6 1.99 6 2.98 6 4 C2.04 5.98 2.04 5.98 -2 8 C-2.33 6.68 -2.66 5.36 -3 4 C-2.01 4 -1.02 4 0 4 C0 2.68 0 1.36 0 0 Z " fill="#EC4A3E" transform="translate(322,282)"/>
<path d="M0 0 C-2.92903058 2.33364352 -5.88568203 4.04960836 -9.25 5.6875 C-10.58804687 6.34298828 -10.58804687 6.34298828 -11.953125 7.01171875 C-12.96632813 7.50091797 -12.96632813 7.50091797 -14 8 C-13.734375 5.61328125 -13.734375 5.61328125 -13 3 C-9.24906827 0.43218926 -4.48101988 -0.42009561 0 0 Z " fill="#EA746C" transform="translate(306,298)"/>
<path d="M0 0 C0 0.99 0 1.98 0 3 C0.9793879 4.02019573 1.97895449 5.02149805 3 6 C3 6.66 3 7.32 3 8 C-0.7910119 6.55049545 -4.3874638 4.84827434 -8 3 C-2 0 -2 0 0 0 Z " fill="#EF6C61" transform="translate(301,244)"/>
<path d="M0 0 C0.99 0 1.98 0 3 0 C3.33 1.98 3.66 3.96 4 6 C3.01 6.66 2.02 7.32 1 8 C-0.32 7.34 -1.64 6.68 -3 6 C-2.01 4.02 -1.02 2.04 0 0 Z " fill="#F05248" transform="translate(145,216)"/>
<path d="M0 0 C0.66 0 1.32 0 2 0 C3.38766322 6.05525768 2.49118146 9.32010626 0 15 C-1.42346631 12.69082133 -2.0474782 11.44874553 -1.7578125 8.7109375 C-1.44457031 7.55464844 -1.44457031 7.55464844 -1.125 6.375 C-0.27046052 3.22537167 -0.27046052 3.22537167 0 0 Z " fill="#EA5F53" transform="translate(251,261)"/>
<path d="M0 0 C1.1875 1.6875 1.1875 1.6875 2 4 C1.125 6.6875 1.125 6.6875 -1 9 C-3.73144908 9.74055004 -6.14306053 9.85949478 -9 10 C-8.2575 9.278125 -7.515 8.55625 -6.75 7.8125 C-4.30709485 5.31407427 -2.1318953 2.76356798 0 0 Z " fill="#EE5F57" transform="translate(316,182)"/>
<path d="M0 0 C2.71212397 2.36921174 3.92238997 4.67106739 5.25 8 C5.60578125 8.86625 5.9615625 9.7325 6.328125 10.625 C7 13 7 13 6 16 C3.07034088 13.07034088 2.05866431 10.319947 1.875 6.1875 C1.91625 5.465625 1.9575 4.74375 2 4 C1.34 4 0.68 4 0 4 C0 2.68 0 1.36 0 0 Z " fill="#E97368" transform="translate(287,114)"/>
<path d="M0 0 C-1.41166886 0.98635837 -2.82956184 1.96381255 -4.25 2.9375 C-5.43335938 3.75541016 -5.43335938 3.75541016 -6.640625 4.58984375 C-8.82636993 5.89622441 -10.5153801 6.54980511 -13 7 C-13.33 6.34 -13.66 5.68 -14 5 C-13.34 5 -12.68 5 -12 5 C-12 4.34 -12 3.68 -12 3 C-10.35 3 -8.7 3 -7 3 C-7 2.01 -7 1.02 -7 0 C-3.98968256 -0.93423645 -3.13349732 -1.04449911 0 0 Z " fill="#E76962" transform="translate(211,248)"/>
<path d="M0 0 C0.66 0.33 1.32 0.66 2 1 C0.515 7.435 0.515 7.435 -1 14 C-1.33 14 -1.66 14 -2 14 C-2.33 10.37 -2.66 6.74 -3 3 C-2.01 2.67 -1.02 2.34 0 2 C0 1.34 0 0.68 0 0 Z " fill="#EC5F52" transform="translate(237,316)"/>
<path d="M0 0 C0.33 0.66 0.66 1.32 1 2 C-0.57789598 3.15330947 -2.1625482 4.29737927 -3.75 5.4375 C-4.63171875 6.07558594 -5.5134375 6.71367187 -6.421875 7.37109375 C-8.72699125 8.8275081 -10.34349572 9.55931821 -13 10 C-13 9.01 -13 8.02 -13 7 C-10.35261084 5.5393715 -9.10551666 5 -6 5 C-6 4.34 -6 3.68 -6 3 C-4.02 2.01 -2.04 1.02 0 0 Z " fill="#E55D54" transform="translate(325,304)"/>
<path d="M0 0 C2.64 0.33 5.28 0.66 8 1 C8 1.66 8 2.32 8 3 C8.99 3 9.98 3 11 3 C11 3.66 11 4.32 11 5 C12.32 5.66 13.64 6.32 15 7 C14.01 7.495 14.01 7.495 13 8 C10.72265625 6.85546875 10.72265625 6.85546875 8.0625 5.1875 C6.74958984 4.37345703 6.74958984 4.37345703 5.41015625 3.54296875 C3.59465305 2.38069361 1.79363014 1.19575343 0 0 Z " fill="#E2675F" transform="translate(329,266)"/>
<path d="M0 0 C0.99 0.66 1.98 1.32 3 2 C2.67 2.99 2.34 3.98 2 5 C1.34 5 0.68 5 0 5 C-0.33 7.31 -0.66 9.62 -1 12 C-1.66 12 -2.32 12 -3 12 C-2.49202991 7.6822542 -1.80317221 3.96697886 0 0 Z " fill="#E8625B" transform="translate(135,237)"/>
<path d="M0 0 C2 4 2 4 2 8 C0.35 8.33 -1.3 8.66 -3 9 C-2.01 6.03 -1.02 3.06 0 0 Z " fill="#ED6054" transform="translate(139,227)"/>
<path d="M0 0 C0.33 0 0.66 0 1 0 C1.02694851 1.95825873 1.04637218 3.91662226 1.0625 5.875 C1.07410156 6.96554687 1.08570313 8.05609375 1.09765625 9.1796875 C1 12 1 12 0 14 C-0.99 14 -1.98 14 -3 14 C-2.01 9.38 -1.02 4.76 0 0 Z " fill="#E7645C" transform="translate(250,323)"/>
<path d="M0 0 C2.375 0.25 2.375 0.25 5 1 C6.3125 3.0625 6.3125 3.0625 7 5 C6.01 5.495 6.01 5.495 5 6 C4.34 5.34 3.68 4.68 3 4 C1.02 4.99 1.02 4.99 -1 6 C-0.67 4.02 -0.34 2.04 0 0 Z " fill="#E4655B" transform="translate(324,164)"/>
<path d="M0 0 C0.33 0.99 0.66 1.98 1 3 C0.34 3 -0.32 3 -1 3 C-1.33 4.32 -1.66 5.64 -2 7 C-4.475 6.01 -4.475 6.01 -7 5 C-4.63707344 2.47411298 -3.33537489 1.11179163 0 0 Z " fill="#EE5C52" transform="translate(216,263)"/>
<path d="M0 0 C1.98 0 3.96 0 6 0 C6 0.66 6 1.32 6 2 C7.65 2 9.3 2 11 2 C11 2.99 11 3.98 11 5 C7.37 4.01 3.74 3.02 0 2 C0 1.34 0 0.68 0 0 Z " fill="#E66A63" transform="translate(206,387)"/>
<path d="M0 0 C2.875 -0.125 2.875 -0.125 6 0 C6.66 0.66 7.32 1.32 8 2 C3.05 3.485 3.05 3.485 -2 5 C-1.34 3.35 -0.68 1.7 0 0 Z " fill="#EC6A60" transform="translate(291,385)"/>
<path d="M0 0 C0.99 0.33 1.98 0.66 3 1 C1.5361389 5.39158329 -0.97831338 5.87947433 -5 8 C-4.67 6.35 -4.34 4.7 -4 3 C-2.35 3 -0.7 3 1 3 C0.67 2.01 0.34 1.02 0 0 Z " fill="#E7685C" transform="translate(321,369)"/>
<path d="M0 0 C0.33 0 0.66 0 1 0 C1 2.97 1 5.94 1 9 C1.66 9.33 2.32 9.66 3 10 C1.35 10.33 -0.3 10.66 -2 11 C-1.40049704 7.31733897 -0.75241109 3.65456815 0 0 Z " fill="#EC5D54" transform="translate(268,261)"/>
<path d="M0 0 C0.33 0 0.66 0 1 0 C1 1.98 1 3.96 1 6 C0.34 6 -0.32 6 -1 6 C-1 7.98 -1 9.96 -1 12 C-2.98 12.99 -2.98 12.99 -5 14 C-3.35 9.38 -1.7 4.76 0 0 Z " fill="#E67972" transform="translate(227,111)"/>
<path d="M0 0 C-0.99 0.33 -1.98 0.66 -3 1 C-3 1.66 -3 2.32 -3 3 C-7.455 4.485 -7.455 4.485 -12 6 C-12 5.34 -12 4.68 -12 4 C-10.56988027 3.13353333 -9.13059381 2.28218171 -7.6875 1.4375 C-6.48673828 0.72400391 -6.48673828 0.72400391 -5.26171875 -0.00390625 C-3 -1 -3 -1 0 0 Z " fill="#E46961" transform="translate(204,272)"/>
<path d="M0 0 C0.33 0.66 0.66 1.32 1 2 C0.22265625 3.7265625 0.22265625 3.7265625 -0.9375 5.625 C-1.618125 6.73875 -2.29875 7.8525 -3 9 C-4.32 8.67 -5.64 8.34 -7 8 C-5.625 6 -5.625 6 -4 4 C-3.34 4 -2.68 4 -2 4 C-1.34 2.68 -0.68 1.36 0 0 Z " fill="#E96D69" transform="translate(164,191)"/>
<path d="M0 0 C0.66 0.33 1.32 0.66 2 1 C2 1.99 2 2.98 2 4 C-0.31 5.32 -2.62 6.64 -5 8 C-5.33 7.34 -5.66 6.68 -6 6 C-5.34 6 -4.68 6 -4 6 C-4 5.34 -4 4.68 -4 4 C-3.34 4 -2.68 4 -2 4 C-2 3.34 -2 2.68 -2 2 C-1.34 2 -0.68 2 0 2 C0 1.34 0 0.68 0 0 Z " fill="#EC716F" transform="translate(192,162)"/>
<path d="M0 0 C2.80045623 3.14591933 3.35261589 5.067064 3.1875 9.25 C3.16042969 10.14203125 3.13335937 11.0340625 3.10546875 11.953125 C3.07066406 12.62859375 3.03585938 13.3040625 3 14 C1.20724134 10.88089144 0.65709282 8.32317572 0.375 4.75 C0.30023438 3.85796875 0.22546875 2.9659375 0.1484375 2.046875 C0.09945312 1.37140625 0.05046875 0.6959375 0 0 Z " fill="#E2685F" transform="translate(130,293)"/>
<path d="M0 0 C0.66 0 1.32 0 2 0 C1.44687265 4.02992782 0.8441938 8.02022924 0 12 C-0.33 12 -0.66 12 -1 12 C-1.02698189 10.37509046 -1.04638757 8.75005367 -1.0625 7.125 C-1.07410156 6.22007812 -1.08570313 5.31515625 -1.09765625 4.3828125 C-1 2 -1 2 0 0 Z " fill="#E56A5F" transform="translate(256,249)"/>
<path d="M0 0 C2.625 0.9375 2.625 0.9375 5 2 C4.01 2.495 4.01 2.495 3 3 C2.34 2.67 1.68 2.34 1 2 C0.67 2.99 0.34 3.98 0 5 C-2.0625 5.6875 -2.0625 5.6875 -4 6 C-4 5.34 -4 4.68 -4 4 C-3.34 4 -2.68 4 -2 4 C-2 3.01 -2 2.02 -2 1 C-1.34 0.67 -0.68 0.34 0 0 Z " fill="#EB5751" transform="translate(216,241)"/>
<path d="M0 0 C1.98 0.495 1.98 0.495 4 1 C4.33 2.32 4.66 3.64 5 5 C4.01 5.495 4.01 5.495 3 6 C0.875 5.0625 0.875 5.0625 -1 4 C-0.67 2.68 -0.34 1.36 0 0 Z " fill="#EE645D" transform="translate(205,296)"/>
<path d="M0 0 C1.32 0.33 2.64 0.66 4 1 C-0.95 3.475 -0.95 3.475 -6 6 C-6 4.68 -6 3.36 -6 2 C-4.02 2 -2.04 2 0 2 C0 1.34 0 0.68 0 0 Z " fill="#E87972" transform="translate(194,255)"/>
<path d="M0 0 C0.87324262 2.44507934 1.10151327 3.67700322 0.3125 6.1875 C-1 8 -1 8 -3.125 8.75 C-4.053125 8.87375 -4.053125 8.87375 -5 9 C-3.50163895 5.88801935 -1.80066242 2.9465385 0 0 Z " fill="#E86860" transform="translate(218,131)"/>
<path d="M0 0 C2.31 0 4.62 0 7 0 C6.67 1.98 6.34 3.96 6 6 C3.97945196 4.35830472 1.97956942 2.69088222 0 1 C0 0.67 0 0.34 0 0 Z " fill="#EA6656" transform="translate(168,364)"/>
<path d="M0 0 C1.65 0.33 3.3 0.66 5 1 C0.25 5 0.25 5 -2 5 C-1.34 3.35 -0.68 1.7 0 0 Z " fill="#E96157" transform="translate(314,289)"/>
<path d="M0 0 C0.33 0.66 0.66 1.32 1 2 C1.66 2 2.32 2 3 2 C3 3.32 3 4.64 3 6 C0.525 5.01 0.525 5.01 -2 4 C-2 3.01 -2 2.02 -2 1 C-1.34 0.67 -0.68 0.34 0 0 Z " fill="#E66D66" transform="translate(182,282)"/>
<path d="M0 0 C2.475 0.99 2.475 0.99 5 2 C4.34 3.65 3.68 5.3 3 7 C2.01 6.67 1.02 6.34 0 6 C0 4.02 0 2.04 0 0 Z " fill="#F1594C" transform="translate(289,262)"/>
<path d="M0 0 C0.33 0 0.66 0 1 0 C2.29243536 4.1196377 3.26252625 7.66831683 3 12 C0.89366282 10.29171079 0.06198392 9.47851584 -0.29296875 6.73828125 C-0.25816406 5.93777344 -0.22335937 5.13726562 -0.1875 4.3125 C-0.16042969 3.50425781 -0.13335937 2.69601563 -0.10546875 1.86328125 C-0.07066406 1.24839844 -0.03585937 0.63351563 0 0 Z " fill="#E4695D" transform="translate(294,129)"/>
<path d="M0 0 C1.32 0.66 2.64 1.32 4 2 C4 3.98 4 5.96 4 8 C2.35 6.35 0.7 4.7 -1 3 C-0.67 2.01 -0.34 1.02 0 0 Z " fill="#E8756A" transform="translate(160,353)"/>
<path d="M0 0 C0.99 0.33 1.98 0.66 3 1 C3 1.99 3 2.98 3 4 C-1.22222222 7 -1.22222222 7 -4 7 C-4 6.34 -4 5.68 -4 5 C-3.34 5 -2.68 5 -2 5 C-2 4.34 -2 3.68 -2 3 C-1.34 2.67 -0.68 2.34 0 2 C0 1.34 0 0.68 0 0 Z " fill="#E77D75" transform="translate(325,282)"/>
<path d="M0 0 C0.99 0.33 1.98 0.66 3 1 C2.67 1.66 2.34 2.32 2 3 C1.92966231 4.87379605 1.9156978 6.75001102 1.9375 8.625 C1.94652344 9.62789063 1.95554687 10.63078125 1.96484375 11.6640625 C1.97644531 12.43492187 1.98804688 13.20578125 2 14 C1.34 14 0.68 14 0 14 C0 9.38 0 4.76 0 0 Z " fill="#F24135" transform="translate(349,278)"/>
<path d="M0 0 C2.0625 1.75 2.0625 1.75 4 4 C3.75 6.25 3.75 6.25 3 8 C2.01 7.67 1.02 7.34 0 7 C0 4.69 0 2.38 0 0 Z " fill="#EF6058" transform="translate(332,171)"/>
<path d="M0 0 C0.33 0.99 0.66 1.98 1 3 C0.34 3.66 -0.32 4.32 -1 5 C-3.625 4.625 -3.625 4.625 -6 4 C-3.94766315 1.7522025 -2.99332739 0.9977758 0 0 Z " fill="#E9584D" transform="translate(308,314)"/>
<path d="M0 0 C3.12290635 0.48578543 5.99580359 0.9986012 9 2 C8.67 2.99 8.34 3.98 8 5 C5.36 3.68 2.72 2.36 0 1 C0 0.67 0 0.34 0 0 Z " fill="#E2655F" transform="translate(315,258)"/>
<path d="M0 0 C0.66 0.33 1.32 0.66 2 1 C1.01 2.32 0.02 3.64 -1 5 C-2.65 4.67 -4.3 4.34 -6 4 C-4.03617993 2.49440461 -2.21736634 1.10868317 0 0 Z " fill="#EA736F" transform="translate(302,194)"/>
<path d="M0 0 C3.96 1.98 3.96 1.98 8 4 C5 6 5 6 2.8125 5.625 C2.214375 5.41875 1.61625 5.2125 1 5 C0.67 3.35 0.34 1.7 0 0 Z " fill="#E6665F" transform="translate(237,65)"/>
<path d="M0 0 C2.97 0.495 2.97 0.495 6 1 C6 1.99 6 2.98 6 4 C6.66 4 7.32 4 8 4 C7.67 4.66 7.34 5.32 7 6 C5.83054208 5.19152271 4.66449539 4.37810888 3.5 3.5625 C2.8503125 3.11003906 2.200625 2.65757812 1.53125 2.19140625 C1.0259375 1.79824219 0.520625 1.40507812 0 1 C0 0.67 0 0.34 0 0 Z " fill="#E4665F" transform="translate(175,370)"/>
<path d="M0 0 C-1.75 5.75 -1.75 5.75 -4 8 C-4 5.69 -4 3.38 -4 1 C-2 0 -2 0 0 0 Z " fill="#E96259" transform="translate(360,326)"/>
<path d="M0 0 C0 3 0 3 -1.5 4.6875 C-1.995 5.120625 -2.49 5.55375 -3 6 C-3.66 5.67 -4.32 5.34 -5 5 C-4 2 -4 2 -1.9375 0.8125 C-1.298125 0.544375 -0.65875 0.27625 0 0 Z " fill="#E46255" transform="translate(346,292)"/>
<path d="M0 0 C0.33 1.32 0.66 2.64 1 4 C0.01 4.66 -0.98 5.32 -2 6 C-2.99 5.67 -3.98 5.34 -5 5 C-3.35 3.35 -1.7 1.7 0 0 Z " fill="#EE958F" transform="translate(199,155)"/>
<path d="M0 0 C1.41377341 2.63904371 2.37240135 5.07120629 3 8 C1.68 7.67 0.36 7.34 -1 7 C-0.67 4.69 -0.34 2.38 0 0 Z " fill="#ED6154" transform="translate(229,104)"/>
</svg>
